<svg width="36" height="36" viewBox="0 0 36 36" fill="none" xmlns="http://www.w3.org/2000/svg">
<path d="M11.25 27C12.4926 27 13.5 28.0074 13.5 29.25C13.5 30.4926 12.4926 31.5 11.25 31.5C10.0074 31.5 9 30.4926 9 29.25C9 28.0074 10.0074 27 11.25 27Z" fill="white"/>
<path d="M24.75 27C25.9926 27 27 28.0073 27 29.25C27 30.4926 25.9926 31.5 24.75 31.5C23.5074 31.5 22.5 30.4926 22.5 29.25C22.5 28.0073 23.5074 27 24.75 27Z" fill="white"/>
<path opacity="0.5" d="M3.12649 4.12667C3.33256 3.54053 3.97479 3.23242 4.56094 3.4385L5.01304 3.59744C5.93784 3.92254 6.72328 4.19866 7.34142 4.50196C8.00236 4.82626 8.56914 5.22577 8.99541 5.84956C9.41838 6.46852 9.59299 7.1476 9.67359 7.89217C9.70968 8.22547 9.7287 8.59438 9.73873 8.99987H25.6961C28.2235 8.99987 30.4987 8.99987 31.1645 9.86549C31.8305 10.7311 31.5701 12.0354 31.0495 14.644L30.2998 18.2811C29.8271 20.5745 29.5909 21.7211 28.7632 22.3955C27.9356 23.0699 26.7649 23.0699 24.4234 23.0699H16.469C12.2857 23.0699 10.194 23.0699 8.89438 21.6992C7.59478 20.3283 7.49992 18.8723 7.49992 14.4599V10.5574C7.49992 9.44743 7.49839 8.70461 7.43665 8.1343C7.37766 7.58927 7.27311 7.31714 7.13772 7.11901C7.00563 6.92572 6.80512 6.74507 6.35029 6.5219C5.86602 6.28429 5.20789 6.05096 4.20648 5.69888L3.81466 5.56112C3.22852 5.35505 2.92041 4.71283 3.12649 4.12667Z" fill="white"/>
<path d="M20.625 13.5C20.625 12.8787 20.1213 12.375 19.5 12.375C18.8787 12.375 18.375 12.8787 18.375 13.5V15.375H16.5C15.8787 15.375 15.375 15.8787 15.375 16.5C15.375 17.1213 15.8787 17.625 16.5 17.625H18.375V19.5C18.375 20.1213 18.8787 20.625 19.5 20.625C20.1213 20.625 20.625 20.1213 20.625 19.5V17.625H22.5C23.1213 17.625 23.625 17.1213 23.625 16.5C23.625 15.8787 23.1213 15.375 22.5 15.375H20.625V13.5Z" fill="white"/>
</svg>
