<svg width="32" height="32" viewBox="0 0 32 32" fill="none" xmlns="http://www.w3.org/2000/svg">
<rect width="32" height="32" rx="16" fill="#0D0D29"/>
<path d="M14.372 20.3551C14.7856 20.3257 15.097 19.9666 15.0675 19.553C15.0381 19.1395 14.679 18.8281 14.2654 18.8575C13.8519 18.8869 13.5405 19.246 13.5699 19.6596C13.5993 20.0732 13.9584 20.3846 14.372 20.3551Z" fill="#A353FF"/>
<path d="M18.0115 14.633C19.849 14.5114 21.4598 13.5629 22.4762 12.1562C22.5613 12.5197 22.6067 12.8992 22.6067 13.2883C22.6067 14.7354 21.9846 16.0397 20.9946 16.9485C20.7021 17.2166 20.3699 17.4317 20.0122 17.591C19.5424 17.7997 19.0304 17.895 18.5165 17.895H17.4477C16.8173 16.745 15.5712 15.9802 14.1523 16.0442C12.3238 16.1267 10.8384 17.6102 10.7546 19.4394C10.6605 21.4861 12.2918 23.175 14.3181 23.175C16.3443 23.175 17.8854 21.5776 17.8854 19.6077C17.8854 19.4899 17.8797 19.3741 17.8682 19.2595L19.4419 19.207C20.0781 19.143 20.6906 18.9248 21.2192 18.5651C22.9062 17.4182 24.0147 15.4829 24.0147 13.289C24.0147 12.2618 23.7709 11.2922 23.3395 10.4326C23.0419 9.84064 22.6554 9.30112 22.1965 8.832C22.1722 9.44512 22.0275 10.0269 21.785 10.5555C21.1597 11.9194 19.8854 12.9267 18.3597 13.1776C18.1485 13.2122 17.9347 13.2256 17.721 13.2243L14.4352 13.2102C14.3872 13.2077 14.144 13.2083 13.9987 13.2083C10.6854 13.2083 8 15.8938 8 19.2064H9.408C9.408 16.7846 11.2934 14.7968 13.673 14.6291M14.3174 21.7664C13.127 21.7664 12.1581 20.7974 12.1581 19.607C12.1581 18.4166 13.127 17.4477 14.3174 17.4477C15.5078 17.4477 16.4768 18.4166 16.4768 19.607C16.4768 20.7974 15.5078 21.7664 14.3174 21.7664Z" fill="url(#paint0_linear_368_611)"/>
<defs>
<linearGradient id="paint0_linear_368_611" x1="8" y1="16.0026" x2="24.0141" y2="16.0026" gradientUnits="userSpaceOnUse">
<stop stop-color="#C644FF"/>
<stop offset="1" stop-color="#5B36FF"/>
</linearGradient>
</defs>
</svg>
